<svg xmlns="http://www.w3.org/2000/svg" viewBox="0 0 720 480" role="img" aria-label="Fictional top-down tactical map"><rect width="720" height="480" fill="#000000"/><path d="M61 57h598v367H61Z" fill="#2d454e" stroke="#88a19e" stroke-width="5"/><path d="M102 99h149v93H102Zm358 0h157v130H460ZM96 266h126v112H96Zm397 45h122v78H493Z" fill="#000000" stroke="#809b98" stroke-width="11"/><path d="M250 149h210M194 215h146v88h160M263 354h236" fill="none" stroke="#b6c5b5" stroke-width="54"/><path d="M250 149h210M194 215h146v88h160M263 354h236" fill="none" stroke="#537078" stroke-width="45"/><path d="M92 101h100v80H92Zm447 220h92v70h-92Z" fill="#ff626d" opacity=".85"/><text x="124" y="152" fill="#fff" font-family="Arial,sans-serif" font-size="38" font-weight="bold">A</text><text x="568" y="372" fill="#fff" font-family="Arial,sans-serif" font-size="38" font-weight="bold">B</text><circle cx="343" cy="301" r="15" fill="#ffe4b1"/><path d="m344 282 0-72" stroke="#ffe4b1" stroke-width="5"/><text x="61" y="39" fill="#f1eee5" font-family="Arial,sans-serif" font-size="24" font-weight="bold" letter-spacing="3">LEARN THE ROUTES</text></svg>
